<?xml version="1.0" encoding="UTF-8"?>
<svg width="13px" height="16px" viewBox="0 0 13 16" version="1.1" xmlns="http://www.w3.org/2000/svg" xmlns:xlink="http://www.w3.org/1999/xlink">
    <!-- Generator: Sketch 50.2 (55047) - http://www.bohemiancoding.com/sketch -->
    <title>icon_header_login</title>
    <desc>Created with Sketch.</desc>
    <defs></defs>
    <g id="icon_header_login" stroke="none" stroke-width="1" fill="none" fill-rule="evenodd">
        <g id="Group-2" fill="#FFFFFF">
            <g id="Group">
                <path d="M11.4849184,14.1118222 C11.4849184,14.1797333 11.4397605,14.2259556 11.3812605,14.2263111 L1.47389211,14.2263111 C1.39794474,14.2259556 1.37126053,14.1669333 1.37057632,14.1189333 L1.37057632,6.58471111 C1.37126053,6.5296 1.39794474,6.47093333 1.46705,6.47022222 L11.3754447,6.47022222 C11.4407868,6.47128889 11.4849184,6.51786667 11.4849184,6.5776 L11.4849184,14.1118222 Z M2.92749737,5.00711111 C2.92989211,3.0192 4.48920789,1.40213333 6.40328684,1.40213333 C7.32936579,1.40284444 8.20036579,1.77937778 8.85652368,2.4624 C9.51233947,3.14542222 9.87326053,4.05173333 9.87223421,5.01422222 L9.87223639,5.04586667 L2.92749737,5.04586667 L2.92749737,5.00711111 Z M11.3812605,5.04586667 L11.2211553,5.04586667 L11.2211553,5.01564444 C11.2225237,3.67911111 10.7216816,2.4208 9.81031316,1.47288889 C8.89894474,0.524266667 7.68823421,0.00124444444 6.40020789,0.000177777778 C3.74444474,0.000177777778 1.58165526,2.24551111 1.57891842,5.00604444 L1.57891842,5.04586667 L1.46705,5.04586667 C0.649760526,5.05084444 0.00386578947,5.72782222 0.000102631579,6.5776 L0.000102631579,14.1189333 C0.00386578947,14.9676444 0.649760526,15.6467556 1.46705,15.6510222 L11.3812605,15.6510222 C12.19855,15.6467556 12.8512868,14.9676444 12.85505,14.1189333 L12.85505,6.5776 C12.8512868,5.72782222 12.19855,5.05084444 11.3812605,5.04586667 Z" id="Fill-1"></path>
                <path d="M6.42767895,7.95104 C5.70686316,7.95104 5.12015263,8.56010667 5.12015263,9.30890667 C5.11912632,9.89095111 5.47388947,10.3848178 5.96925789,10.5793067 L5.84849474,12.1039289 C5.83617895,12.2703289 5.86936316,12.4178844 5.94804737,12.54624 C6.04794211,12.7101511 6.1841,12.8033067 6.35652105,12.8264178 C6.52962632,12.8484622 6.68391579,12.7976178 6.81938947,12.6728178 C6.98873158,12.5156622 7.06467895,12.3179733 7.04757368,12.07904 L6.92749474,10.5657956 C7.40028421,10.3613511 7.73452105,9.87672889 7.73554737,9.31210667 C7.73691579,8.56259556 7.14986316,7.95175111 6.42767895,7.95104" id="Fill-3"></path>
            </g>
        </g>
    </g>
</svg>