<?xml version="1.0" encoding="UTF-8"?>
<svg width="195px" height="43px" viewBox="0 0 195 43" version="1.1" xmlns="http://www.w3.org/2000/svg" xmlns:xlink="http://www.w3.org/1999/xlink">
    <!-- Generator: Sketch 50.2 (55047) - http://www.bohemiancoding.com/sketch -->
    <title>img_header_logo_ebu</title>
    <desc>Created with Sketch.</desc>
    <defs></defs>
    <g id="img_header_logo_ebu" stroke="none" stroke-width="1" fill="none" fill-rule="evenodd">
        <g id="Group-10" fill="#FFFFFF">
            <g id="Group-9">
                <g id="Group-8">
                    <g id="Group-3" transform="translate(0.165601, 0.108434)">
                        <polygon id="Fill-1" points="0.73146635 0 0.73146635 27.8554217 18.2866587 27.8554217 18.2866587 22.4039384 6.65470735 22.4039384 6.65470735 16.5540742 18.2866587 16.5540742 18.2866587 11.102591 6.65470735 11.102591 6.65470735 5.45235119 18.2866587 5.45235119 18.2866587 0"></polygon>
                        <g id="Group-52">
                            <g id="Group-4" transform="translate(47.173106, 0.000000)">
                                <path d="M18.3020503,0.0472153591 L18.3020503,15.9822872 C18.3020503,20.3937697 16.0617566,22.6584462 12.3642427,22.6584462 C8.67101734,22.6584462 6.42815056,20.3131669 6.42815056,15.7838139 L6.42815056,0.0472153591 L0.371123693,0.0472153591 L0.371123693,15.9424192 C0.371123693,24.1274958 4.89373806,28.2997702 12.2861927,28.2997702 C19.679505,28.2997702 24.3599348,24.1690972 24.3599348,15.7439458 L24.3599348,0.0472153591 L18.3020503,0.0472153591 Z" id="Fill-2"></path>
                            </g>
                            <g id="Group-7" transform="translate(23.157707, 0.000000)">
                                <path d="M15.5287862,19.4793188 C15.5287862,21.2985136 14.2765547,22.2518791 12.1529072,22.4538193 C11.8647224,22.4815535 11.5610991,22.4980208 11.2420374,22.4980208 L6.02812261,22.4980208 L6.02812261,16.3782806 L11.0456257,16.3782806 C11.4427375,16.3782806 11.8115455,16.399948 12.1529072,16.4363492 C14.4806856,16.6876911 15.5287862,17.7701943 15.5287862,19.398716 L15.5287862,19.4793188 Z M6.02812261,5.41197667 L10.0232559,5.41197667 C10.8646526,5.41197667 11.5679607,5.53504749 12.1529072,5.74998809 C13.3442426,6.18853624 13.9943737,7.04743194 13.9943737,8.27380672 L13.9943737,8.35354275 C13.9943737,9.65618677 13.3193695,10.4812813 12.1529072,10.9163627 C11.469326,11.172038 10.617637,11.2933754 9.62957486,11.2933754 L6.02812261,11.2933754 L6.02812261,5.41197667 Z M16.395056,13.3188439 C18.3617457,12.206873 20.0128044,10.4578805 20.0128044,7.31957447 L20.0128044,7.23810505 C20.0128044,5.33137394 19.3815425,3.78258827 18.1250225,2.51201199 C16.7621486,1.13483212 14.7191242,0.296737125 12.1529072,0.0965303591 C11.7566531,0.0653293046 11.349249,0.0471286895 10.9289795,0.0471286895 L0.129768927,0.0471286895 L0.129768927,27.8637354 L11.2420374,27.8637354 C11.5516645,27.8637354 11.8527147,27.8524684 12.1529072,27.839468 C17.8497031,27.5976598 21.5463592,25.0669076 21.5463592,20.2333442 L21.5463592,20.1536082 C21.5463592,16.419882 19.5788119,14.5521522 16.395056,13.3188439 Z" id="Fill-5"></path>
                            </g>
                            <path d="M179.320502,36.1018539 L179.320502,40.9926191 L180.752849,40.9926191 C182.300127,40.9926191 183.287331,39.9335167 183.287331,38.5650038 L183.287331,38.5476699 C183.287331,37.1791569 182.300127,36.1018539 180.752849,36.1018539 L179.320502,36.1018539 Z M178.630917,35.4570321 L180.752849,35.4570321 C182.674938,35.4570321 184.003505,36.7900104 184.003505,38.5294692 L184.003505,38.5476699 C184.003505,40.2862619 182.674938,41.6365742 180.752849,41.6365742 L178.630917,41.6365742 L178.630917,35.4570321 Z" id="Fill-8"></path>
                            <path d="M175.694519,39.3680842 L174.306772,36.2254447 L172.908733,39.3680842 L175.694519,39.3680842 Z M173.991999,35.4133506 L174.6387,35.4133506 L177.425344,41.6370943 L176.681724,41.6370943 L175.96555,40.0033724 L172.637702,40.0033724 L171.912952,41.6370943 L171.204497,41.6370943 L173.991999,35.4133506 Z" id="Fill-10"></path>
                            <path d="M167.981202,38.6088586 C168.898076,38.6088586 169.553353,38.1321758 169.553353,37.3374156 L169.553353,37.3200817 C169.553353,36.560856 168.976983,36.1015072 167.989779,36.1015072 L166.102855,36.1015072 L166.102855,38.6088586 L167.981202,38.6088586 Z M165.41327,35.4566854 L168.042098,35.4566854 C168.794295,35.4566854 169.395537,35.6863598 169.780641,36.0746396 C170.077403,36.3753831 170.251515,36.8078644 170.251515,37.2932141 L170.251515,37.310548 C170.251515,38.3349827 169.553353,38.935603 168.592737,39.1124089 L170.471084,41.6362276 L169.622826,41.6362276 L167.849975,39.2354798 L166.102855,39.2354798 L166.102855,41.6362276 L165.41327,41.6362276 L165.41327,35.4566854 Z" id="Fill-12"></path>
                            <path d="M163.237045,38.5648304 L163.237045,38.5474965 C163.237045,37.1434491 162.223253,35.9959436 160.826071,35.9959436 C159.428889,35.9959436 158.431392,37.1252484 158.431392,38.5292959 L158.431392,38.5474965 C158.431392,39.9506773 159.445185,41.0981827 160.843225,41.0981827 C162.242122,41.0981827 163.237045,39.9680112 163.237045,38.5648304 M157.716077,38.5648304 L157.716077,38.5474965 C157.716077,36.8427056 158.982031,35.3511218 160.843225,35.3511218 C162.703561,35.3511218 163.953219,36.8253716 163.953219,38.5292959 L163.953219,38.5474965 C163.953219,40.2505541 162.686407,41.7421378 160.826071,41.7421378 C158.965735,41.7421378 157.716077,40.2687547 157.716077,38.5648304" id="Fill-14"></path>
                            <path d="M154.238818,38.6088586 C155.15655,38.6088586 155.810969,38.1321758 155.810969,37.3374156 L155.810969,37.3200817 C155.810969,36.560856 155.235457,36.1015072 154.247395,36.1015072 L152.361329,36.1015072 L152.361329,38.6088586 L154.238818,38.6088586 Z M151.670886,35.4566854 L154.300572,35.4566854 C155.051911,35.4566854 155.654012,35.6863598 156.039116,36.0746396 C156.335877,36.3753831 156.509989,36.8078644 156.509989,37.2932141 L156.509989,37.310548 C156.509989,38.3349827 155.810969,38.935603 154.850353,39.1124089 L156.728701,41.6362276 L155.880442,41.6362276 L154.108449,39.2354798 L152.361329,39.2354798 L152.361329,41.6362276 L151.670886,41.6362276 L151.670886,35.4566854 Z" id="Fill-16"></path>
                            <path d="M144.943229,39.0498335 L144.943229,35.4573787 L145.634529,35.4573787 L145.634529,39.005632 C145.634529,40.3394771 146.342126,41.0891691 147.503442,41.0891691 C148.631308,41.0891691 149.346624,40.4010125 149.346624,39.0498335 L149.346624,35.4573787 L150.037067,35.4573787 L150.037067,38.996965 C150.037067,40.7979592 149.014697,41.7339909 147.486288,41.7339909 C145.974176,41.7339909 144.943229,40.7979592 144.943229,39.0498335" id="Fill-18"></path>
                            <polygon id="Fill-20" points="139.18648 35.4573787 143.607029 35.4573787 143.607029 36.0926669 139.876923 36.0926669 139.876923 38.2030715 143.214206 38.2030715 143.214206 38.8383597 139.876923 38.8383597 139.876923 41.0016328 143.650772 41.0016328 143.650772 41.6369209 139.18648 41.6369209"></polygon>
                            <path d="M130.423604,36.1018539 L130.423604,40.9926191 L131.855951,40.9926191 C133.404087,40.9926191 134.390434,39.9335167 134.390434,38.5650038 L134.390434,38.5476699 C134.390434,37.1791569 133.404087,36.1018539 131.855951,36.1018539 L130.423604,36.1018539 Z M129.734019,35.4570321 L131.855951,35.4570321 C133.778041,35.4570321 135.106607,36.7900104 135.106607,38.5294692 L135.106607,38.5476699 C135.106607,40.2862619 133.778041,41.6365742 131.855951,41.6365742 L129.734019,41.6365742 L129.734019,35.4570321 Z" id="Fill-22"></path>
                            <polygon id="Fill-24" points="122.832508 35.4573787 123.478351 35.4573787 127.331965 40.4096794 127.331965 35.4573787 128.004396 35.4573787 128.004396 41.6369209 127.453757 41.6369209 123.504939 36.5693497 123.504939 41.6369209 122.832508 41.6369209"></polygon>
                            <path d="M120.049209,39.3680842 L118.659746,36.2254447 L117.261707,39.3680842 L120.049209,39.3680842 Z M118.345831,35.4133506 L118.992531,35.4133506 L121.779175,41.6370943 L121.035556,41.6370943 L120.319382,40.0033724 L116.991534,40.0033724 L116.266783,41.6370943 L115.559187,41.6370943 L118.345831,35.4133506 Z" id="Fill-26"></path>
                            <polygon id="Fill-28" points="106.561474 35.4573787 107.207317 35.4573787 111.059216 40.4096794 111.059216 35.4573787 111.731647 35.4573787 111.731647 41.6369209 111.182723 41.6369209 107.233048 36.5693497 107.233048 41.6369209 106.561474 41.6369209"></polygon>
                            <path d="M104.561335,38.5648304 L104.561335,38.5474965 C104.561335,37.1434491 103.546684,35.9959436 102.149502,35.9959436 C100.752321,35.9959436 99.7548239,37.1252484 99.7548239,38.5292959 L99.7548239,38.5474965 C99.7548239,39.9506773 100.768617,41.0981827 102.167514,41.0981827 C103.564695,41.0981827 104.561335,39.9680112 104.561335,38.5648304 M99.0403657,38.5648304 L99.0403657,38.5474965 C99.0403657,36.8427056 100.30632,35.3511218 102.167514,35.3511218 C104.02785,35.3511218 105.27665,36.8253716 105.27665,38.5292959 L105.27665,38.5474965 C105.27665,40.2505541 104.009838,41.7421378 102.149502,41.7421378 C100.289167,41.7421378 99.0403657,40.2687547 99.0403657,38.5648304" id="Fill-30"></path>
                            <polygon id="Fill-32" points="97.006776 41.6366609 97.6972187 41.6366609 97.6972187 35.4571187 97.006776 35.4571187"></polygon>
                            <path d="M90.9521507,40.7362505 L91.3809971,40.2240332 C92.0182629,40.8073196 92.6297979,41.0985294 93.4763407,41.0985294 C94.2980105,41.0985294 94.8400723,40.6565145 94.8400723,40.0480939 L94.8400723,40.0298933 C94.8400723,39.4561406 94.533876,39.1302629 93.2499098,38.856387 C91.8432936,38.5469765 91.1965931,38.0884943 91.1965931,37.0727267 L91.1965931,37.0553928 C91.1965931,36.0838266 92.0439937,35.3688024 93.2061675,35.3688024 C94.0973103,35.3688024 94.7354338,35.6253444 95.3555457,36.1280281 L94.9541455,36.667113 C94.3854951,36.1982304 93.8177025,35.9954236 93.1890136,35.9954236 C92.3930747,35.9954236 91.8870359,36.4374385 91.8870359,36.9938573 L91.8870359,37.0111913 C91.8870359,37.5936109 92.2018092,37.9194886 93.5466715,38.2115652 C94.9104032,38.511442 95.539092,39.0149923 95.539092,39.9596909 L95.539092,39.9770248 C95.539092,41.0361273 94.665103,41.7251506 93.4506099,41.7251506 C92.481417,41.7251506 91.6863358,41.3984062 90.9521507,40.7362505" id="Fill-34"></path>
                            <polygon id="Fill-35" points="88.8741325 41.6366609 89.5637175 41.6366609 89.5637175 35.4571187 88.8741325 35.4571187"></polygon>
                            <polygon id="Fill-36" points="81.7361553 35.4573787 82.5046481 35.4573787 84.6806148 40.7806253 86.8643008 35.4573787 87.6062051 35.4573787 84.9773766 41.6811224 84.3649839 41.6811224"></polygon>
                            <path d="M80.442926,38.5648304 L80.442926,38.5474965 C80.442926,37.1434491 79.4282754,35.9959436 78.0310938,35.9959436 C76.6339121,35.9959436 75.637273,37.1252484 75.637273,38.5292959 L75.637273,38.5474965 C75.637273,39.9506773 76.651066,41.0981827 78.0491053,41.0981827 C79.4471447,41.0981827 80.442926,39.9680112 80.442926,38.5648304 M74.9219572,38.5648304 L74.9219572,38.5474965 C74.9219572,36.8427056 76.1887695,35.3511218 78.0491053,35.3511218 C79.9102988,35.3511218 81.1590996,36.8253716 81.1590996,38.5292959 L81.1590996,38.5474965 C81.1590996,40.2505541 79.8922872,41.7421378 78.0310938,41.7421378 C76.170758,41.7421378 74.9219572,40.2687547 74.9219572,38.5648304" id="Fill-37"></path>
                            <path d="M71.4446131,38.6088586 C72.3614868,38.6088586 73.0167641,38.1321758 73.0167641,37.3374156 L73.0167641,37.3200817 C73.0167641,36.560856 72.4403945,36.1015072 71.45319,36.1015072 L69.5671235,36.1015072 L69.5671235,38.6088586 L71.4446131,38.6088586 Z M68.875823,35.4566854 L71.506367,35.4566854 C72.2568482,35.4566854 72.8598063,35.6863598 73.2440527,36.0746396 C73.5416721,36.3753831 73.7157838,36.8078644 73.7157838,37.2932141 L73.7157838,37.310548 C73.7157838,38.3349827 73.0167641,38.935603 72.0561481,39.1124089 L73.9344954,41.6362276 L73.0870949,41.6362276 L71.3133861,39.2354798 L69.5671235,39.2354798 L69.5671235,41.6362276 L68.875823,41.6362276 L68.875823,35.4566854 Z" id="Fill-38"></path>
                            <path d="M62.1491096,39.0498335 L62.1491096,35.4573787 L62.8395523,35.4573787 L62.8395523,39.005632 C62.8395523,40.3394771 63.5471489,41.0891691 64.7084651,41.0891691 C65.8354735,41.0891691 66.5525047,40.4010125 66.5525047,39.0498335 L66.5525047,35.4573787 L67.2429474,35.4573787 L67.2429474,38.996965 C67.2429474,40.7979592 66.2205775,41.7339909 64.6913112,41.7339909 C63.1800564,41.7339909 62.1491096,40.7979592 62.1491096,39.0498335" id="Fill-39"></path>
                            <polygon id="Fill-40" points="56.3922752 35.4573787 60.8128242 35.4573787 60.8128242 36.0926669 57.082718 36.0926669 57.082718 38.2030715 60.4200008 38.2030715 60.4200008 38.8383597 57.082718 38.8383597 57.082718 41.0016328 60.8565665 41.0016328 60.8565665 41.6369209 56.3922752 41.6369209"></polygon>
                            <path d="M46.6511145,38.5648304 L46.6511145,38.5474965 C46.6511145,36.8522392 47.8827615,35.3511218 49.7173665,35.3511218 C50.7474556,35.3511218 51.3864367,35.6509986 51.997114,36.1718829 L51.5528291,36.7023008 C51.0802404,36.2871535 50.5561901,35.9959436 49.6916357,35.9959436 C48.3373387,35.9959436 47.3681458,37.152116 47.3681458,38.5292959 L47.3681458,38.5474965 C47.3681458,40.0208796 48.3021733,41.1155166 49.7876973,41.1155166 C50.4867169,41.1155166 51.1325596,40.8425074 51.5528291,40.4975624 L51.5528291,38.9617772 L49.6916357,38.9617772 L49.6916357,38.335156 L52.2158257,38.335156 L52.2158257,40.7983059 C51.6488907,41.3096565 50.7920556,41.7421378 49.7611088,41.7421378 C47.8390191,41.7421378 46.6511145,40.3302901 46.6511145,38.5648304" id="Fill-41"></path>
                            <polygon id="Fill-42" points="40.02072 35.4573787 40.6674204 35.4573787 44.5184613 40.4096794 44.5184613 35.4573787 45.1917502 35.4573787 45.1917502 41.6369209 44.6428267 41.6369209 40.6931512 36.5693497 40.6931512 41.6369209 40.02072 41.6369209"></polygon>
                            <polygon id="Fill-43" points="37.5386427 41.6366609 38.2299431 41.6366609 38.2299431 35.4571187 37.5386427 35.4571187"></polygon>
                            <polygon id="Fill-44" points="33.433982 36.1018539 31.3798077 36.1018539 31.3798077 35.4570321 36.1854607 35.4570321 36.1854607 36.1018539 34.1312863 36.1018539 34.1312863 41.6365742 33.433982 41.6365742"></polygon>
                            <path d="M29.6681101,39.3680842 L28.2786477,36.2254447 L26.881466,39.3680842 L29.6681101,39.3680842 Z M27.9647321,35.4133506 L28.6105748,35.4133506 L31.3980765,41.6370943 L30.6544568,41.6370943 L29.9382833,40.0033724 L26.6104351,40.0033724 L25.8856846,41.6370943 L25.178088,41.6370943 L27.9647321,35.4133506 Z" id="Fill-45"></path>
                            <path d="M21.953506,38.6088586 C22.8712374,38.6088586 23.5265147,38.1321758 23.5265147,37.3374156 L23.5265147,37.3200817 C23.5265147,36.560856 22.9501451,36.1015072 21.962083,36.1015072 L20.0751587,36.1015072 L20.0751587,38.6088586 L21.953506,38.6088586 Z M19.384716,35.4566854 L22.0144022,35.4566854 C22.7657412,35.4566854 23.3686992,35.6863598 23.7529456,36.0746396 C24.050565,36.3753831 24.2246767,36.8078644 24.2246767,37.2932141 L24.2246767,37.310548 C24.2246767,38.3349827 23.5265147,38.935603 22.565041,39.1124089 L24.4433884,41.6362276 L23.5968455,41.6362276 L21.822279,39.2354798 L20.0751587,39.2354798 L20.0751587,41.6362276 L19.384716,41.6362276 L19.384716,35.4566854 Z" id="Fill-46"></path>
                            <polygon id="Fill-47" points="13.5319915 35.4573787 17.9525405 35.4573787 17.9525405 36.0926669 14.2224343 36.0926669 14.2224343 38.2030715 17.5597171 38.2030715 17.5597171 38.8383597 14.2224343 38.8383597 14.2224343 41.0016328 17.9962828 41.0016328 17.9962828 41.6369209 13.5319915 41.6369209"></polygon>
                            <path d="M9.89768965,38.8209391 C10.9114826,38.8209391 11.5753368,38.2731872 11.5753368,37.4610931 L11.5753368,37.4437592 C11.5753368,36.560596 10.9200595,36.1021139 9.93285505,36.1021139 L8.38643486,36.1021139 L8.38643486,38.8209391 L9.89768965,38.8209391 Z M7.69599212,35.4572921 L9.98517432,35.4572921 C11.3652021,35.4572921 12.2734988,36.1991838 12.2734988,37.4177583 L12.2734988,37.4350923 C12.2734988,38.7680706 11.1730789,39.4562272 9.87110117,39.4562272 L8.38643486,39.4562272 L8.38643486,41.6368343 L7.69599212,41.6368343 L7.69599212,35.4572921 Z" id="Fill-48"></path>
                            <path d="M5.5207973,38.5648304 L5.5207973,38.5474965 C5.5207973,37.1434491 4.50700436,35.9959436 3.10982271,35.9959436 C1.71178338,35.9959436 0.716001986,37.1252484 0.716001986,38.5292959 L0.716001986,38.5474965 C0.716001986,39.9506773 1.72893723,41.0981827 3.12697657,41.0981827 C4.5250159,41.0981827 5.5207973,39.9680112 5.5207973,38.5648304 M-0.000171538569,38.5648304 L-0.000171538569,38.5474965 C-0.000171538569,36.8427056 1.26664079,35.3511218 3.12697657,35.3511218 C4.98817004,35.3511218 6.23697082,36.8253716 6.23697082,38.5292959 L6.23697082,38.5474965 C6.23697082,40.2505541 4.97015849,41.7421378 3.10982271,41.7421378 C1.24862924,41.7421378 -0.000171538569,40.2687547 -0.000171538569,38.5648304" id="Fill-49"></path>
                            <path d="M193.08124,38.6050451 L193.08124,38.5877112 C193.08124,37.1836638 192.067447,36.0361583 190.670265,36.0361583 C189.273084,36.0361583 188.276445,37.1663298 188.276445,38.5695106 L188.276445,38.5877112 C188.276445,39.990892 189.28938,41.1383974 190.688277,41.1383974 C192.085459,41.1383974 193.08124,40.0082259 193.08124,38.6050451 M187.560271,38.6050451 L187.560271,38.5877112 C187.560271,36.883787 188.827083,35.3913365 190.688277,35.3913365 C192.548613,35.3913365 193.797413,36.8655863 193.797413,38.5695106 L193.797413,38.5877112 C193.797413,40.2916355 192.530601,41.7832192 190.670265,41.7832192 C188.80993,41.7832192 187.560271,40.3089694 187.560271,38.6050451" id="Fill-50"></path>
                            <polygon id="Fill-51" points="185.523251 41.6773956 186.213693 41.6773956 186.213693 35.4978534 185.523251 35.4978534"></polygon>
                        </g>
                    </g>
                </g>
            </g>
        </g>
    </g>
</svg>