<?xml version="1.0" encoding="UTF-8"?>
<svg width="129px" height="62px" viewBox="0 0 129 62" version="1.1" xmlns="http://www.w3.org/2000/svg" xmlns:xlink="http://www.w3.org/1999/xlink">
    <!-- Generator: Sketch 50.2 (55047) - http://www.bohemiancoding.com/sketch -->
    <title>img_footer_identity</title>
    <desc>Created with Sketch.</desc>
    <defs>
        <rect id="path-1" x="0" y="0" width="129" height="62"></rect>
        <rect id="path-3" x="0" y="0" width="41.1165049" height="117"></rect>
        <path d="M49.1262136,98.7522936 C21.994555,98.7522936 0,76.6458397 0,49.3761468 C0,22.1064539 21.994555,0 49.1262136,0 C76.2578722,0 98.2524272,22.1064539 98.2524272,49.3761468 C98.2524272,76.6458397 76.2578722,98.7522936 49.1262136,98.7522936 Z M49.1262136,75.6743119 C63.5767709,75.6743119 75.2912621,63.9002223 75.2912621,49.3761468 C75.2912621,34.8520712 63.5767709,23.0779817 49.1262136,23.0779817 C34.6756563,23.0779817 22.961165,34.8520712 22.961165,49.3761468 C22.961165,63.9002223 34.6756563,75.6743119 49.1262136,75.6743119 Z" id="path-5"></path>
        <rect id="path-7" x="0" y="0" width="17.6213592" height="100.362385"></rect>
        <path d="M42.184466,84.7981651 C18.8866288,84.7981651 0,65.8154493 0,42.3990826 C0,18.9827159 18.8866288,0 42.184466,0 C65.4823033,0 84.368932,18.9827159 84.368932,42.3990826 C84.368932,65.8154493 65.4823033,84.7981651 42.184466,84.7981651 Z M42.184466,64.9812026 C54.5930967,64.9812026 64.6522794,54.8708431 64.6522794,42.3990826 C64.6522794,29.927322 54.5930967,19.8169625 42.184466,19.8169625 C29.7758353,19.8169625 19.7166526,29.927322 19.7166526,42.3990826 C19.7166526,54.8708431 29.7758353,64.9812026 42.184466,64.9812026 Z" id="path-9"></path>
        <rect id="path-11" x="0" y="0" width="26.1650485" height="100.362385"></rect>
        <path d="M42.184466,84.7981651 C18.8866288,84.7981651 0,65.8154493 0,42.3990826 C0,18.9827159 18.8866288,0 42.184466,0 C65.4823033,0 84.368932,18.9827159 84.368932,42.3990826 C84.368932,65.8154493 65.4823033,84.7981651 42.184466,84.7981651 Z M42.184466,64.9812026 C54.5930967,64.9812026 64.6522794,54.8708431 64.6522794,42.3990826 C64.6522794,29.927322 54.5930967,19.8169625 42.184466,19.8169625 C29.7758353,19.8169625 19.7166526,29.927322 19.7166526,42.3990826 C19.7166526,54.8708431 29.7758353,64.9812026 42.184466,64.9812026 Z" id="path-13"></path>
        <rect id="path-15" x="0" y="0" width="25.631068" height="100.362385"></rect>
        <path d="M42.184466,84.7981651 C18.8866288,84.7981651 0,65.8154493 0,42.3990826 C0,18.9827159 18.8866288,0 42.184466,0 C65.4823033,0 84.368932,18.9827159 84.368932,42.3990826 C84.368932,65.8154493 65.4823033,84.7981651 42.184466,84.7981651 Z M42.184466,64.9812026 C54.5930967,64.9812026 64.6522794,54.8708431 64.6522794,42.3990826 C64.6522794,29.927322 54.5930967,19.8169625 42.184466,19.8169625 C29.7758353,19.8169625 19.7166526,29.927322 19.7166526,42.3990826 C19.7166526,54.8708431 29.7758353,64.9812026 42.184466,64.9812026 Z" id="path-17"></path>
        <linearGradient x1="100%" y1="50%" x2="0%" y2="50%" id="linearGradient-19">
            <stop stop-color="#000000" stop-opacity="0" offset="0%"></stop>
            <stop stop-color="#000000" offset="100%"></stop>
        </linearGradient>
        <rect id="path-20" x="84.368932" y="8.58715596" width="14.9514563" height="105.729358"></rect>
        <rect id="path-22" x="0" y="0" width="35.2427184" height="100.362385"></rect>
        <path d="M42.184466,84.7981651 C18.8866288,84.7981651 0,65.8154493 0,42.3990826 C0,18.9827159 18.8866288,0 42.184466,0 C65.4823033,0 84.368932,18.9827159 84.368932,42.3990826 C84.368932,65.8154493 65.4823033,84.7981651 42.184466,84.7981651 Z M42.184466,64.9812026 C54.5930967,64.9812026 64.6522794,54.8708431 64.6522794,42.3990826 C64.6522794,29.927322 54.5930967,19.8169625 42.184466,19.8169625 C29.7758353,19.8169625 19.7166526,29.927322 19.7166526,42.3990826 C19.7166526,54.8708431 29.7758353,64.9812026 42.184466,64.9812026 Z" id="path-24"></path>
    </defs>
    <g id="img_footer_identity" stroke="none" stroke-width="1" fill="none" fill-rule="evenodd">
        <g id="Group-10">
            <mask id="mask-2" fill="white">
                <use xlink:href="#path-1"></use>
            </mask>
            <g id="Mask"></g>
            <g mask="url(#mask-2)">
                <g transform="translate(-3.000000, -28.000000)">
                    <g id="Rectangle" stroke="none" stroke-width="1" fill="none" fill-rule="evenodd" transform="translate(43.252427, 0.000000)">
                        <mask id="mask-4" fill="white">
                            <use xlink:href="#path-3"></use>
                        </mask>
                        <g id="Mask"></g>
                        <g mask="url(#mask-4)">
                            <g transform="translate(-3.203883, 10.197248)">
                                <mask id="mask-6" fill="white">
                                    <use xlink:href="#path-5"></use>
                                </mask>
                                <use id="Mask" stroke="none" fill="#C6C7C7" fill-rule="evenodd" xlink:href="#path-5"></use>
                            </g>
                        </g>
                    </g>
                    <g id="Rectangle-Copy" stroke="none" stroke-width="1" fill="none" fill-rule="evenodd" transform="translate(26.165049, 8.050459)">
                        <mask id="mask-8" fill="white">
                            <use xlink:href="#path-7"></use>
                        </mask>
                        <g id="Mask"></g>
                        <g id="Rectangle" mask="url(#mask-8)">
                            <g transform="translate(-5.339806, 8.587156)">
                                <mask id="mask-10" fill="white">
                                    <use xlink:href="#path-9"></use>
                                </mask>
                                <use id="Mask" stroke="none" fill="#C6C7C7" fill-rule="evenodd" xlink:href="#path-9"></use>
                            </g>
                        </g>
                    </g>
                    <g id="Rectangle-Copy-4" stroke="none" stroke-width="1" fill="none" fill-rule="evenodd" transform="translate(0.000000, 8.050459)">
                        <mask id="mask-12" fill="white">
                            <use xlink:href="#path-11"></use>
                        </mask>
                        <g id="Mask"></g>
                        <g id="Rectangle" mask="url(#mask-12)">
                            <g transform="translate(3.203883, 8.587156)">
                                <mask id="mask-14" fill="white">
                                    <use xlink:href="#path-13"></use>
                                </mask>
                                <use id="Mask" stroke="none" fill="#C6C7C7" fill-rule="evenodd" xlink:href="#path-13"></use>
                            </g>
                        </g>
                    </g>
                    <g id="Rectangle-Copy-3" stroke="none" stroke-width="1" fill="none" fill-rule="evenodd" transform="translate(84.368932, 8.050459)">
                        <mask id="mask-16" fill="white">
                            <use xlink:href="#path-15"></use>
                        </mask>
                        <g id="Mask"></g>
                        <g id="Rectangle" mask="url(#mask-16)">
                            <g transform="translate(-59.805825, 8.587156)">
                                <mask id="mask-18" fill="white">
                                    <use xlink:href="#path-17"></use>
                                </mask>
                                <use id="Mask" stroke="none" fill="#C6C7C7" fill-rule="evenodd" xlink:href="#path-17"></use>
                            </g>
                        </g>
                    </g>
                    <mask id="mask-21" fill="white">
                        <use xlink:href="#path-20"></use>
                    </mask>
                    <use id="Mask" stroke="none" fill="url(#linearGradient-19)" fill-rule="evenodd" opacity="0.136886161" xlink:href="#path-20"></use>
                    <g id="Rectangle-Copy-2" stroke="none" stroke-width="1" fill="none" fill-rule="evenodd" mask="url(#mask-21)">
                        <g transform="translate(-9.077670, 8.050459)">
                            <mask id="mask-23" fill="white">
                                <use xlink:href="#path-22"></use>
                            </mask>
                            <g id="Mask" stroke="none" fill="none"></g>
                            <g id="Rectangle" stroke="none" stroke-width="1" fill="none" fill-rule="evenodd" mask="url(#mask-23)">
                                <g transform="translate(12.281553, 8.587156)">
                                    <mask id="mask-25" fill="white">
                                        <use xlink:href="#path-24"></use>
                                    </mask>
                                    <use id="Mask" stroke="none" fill="#C6C7C7" fill-rule="evenodd" xlink:href="#path-24"></use>
                                </g>
                            </g>
                        </g>
                    </g>
                </g>
            </g>
        </g>
    </g>
</svg>